<?xml version="1.0" standalone="no"?>
<!DOCTYPE svg PUBLIC "-//W3C//DTD SVG 20010904//EN"
 "http://www.w3.org/TR/2001/REC-SVG-20010904/DTD/svg10.dtd">
<svg version="1.0" xmlns="http://www.w3.org/2000/svg"
 width="60.000000pt" height="60.000000pt" viewBox="0 0 60.000000 60.000000"
 preserveAspectRatio="xMidYMid meet">

<g transform="translate(0.000000,60.000000) scale(0.100000,-0.100000)"
fill="#000000" stroke="none">
<path d="M115 560 c-22 -22 -49 -40 -60 -40 -44 0 -55 -28 -55 -142 0 -92 2
-107 20 -123 12 -11 20 -31 20 -52 0 -18 5 -33 10 -33 6 0 10 31 10 73 0 43 5
78 12 85 17 17 479 17 496 0 16 -16 16 -200 0 -216 -7 -7 -22 -12 -34 -12 -14
0 -36 -16 -58 -42 l-36 -42 0 42 0 42 -182 2 c-179 3 -183 4 -193 26 -5 12
-13 22 -17 22 -15 0 -8 -37 10 -53 16 -14 45 -17 190 -17 l172 0 0 -34 c0 -51
17 -53 64 -7 23 22 51 41 62 41 43 0 54 29 54 142 0 92 -2 107 -20 123 -16 14
-20 31 -20 80 0 94 -2 95 -208 95 l-171 0 -3 37 c-2 20 -8 38 -13 40 -6 2 -28
-15 -50 -37z"/>
<path d="M120 280 c0 -6 73 -10 200 -10 127 0 200 4 200 10 0 6 -73 10 -200
10 -127 0 -200 -4 -200 -10z"/>
<path d="M120 220 c0 -6 73 -10 200 -10 127 0 200 4 200 10 0 6 -73 10 -200
10 -127 0 -200 -4 -200 -10z"/>
<path d="M120 160 c0 -6 50 -10 130 -10 80 0 130 4 130 10 0 6 -50 10 -130 10
-80 0 -130 -4 -130 -10z"/>
</g>
</svg>
